{"title":"The Amazing Spiderman 2 2014 480p DVDScr TS AUDIO x264 Pimp4003","uid":10185812,"size":1729251276,"categoryP":"video","categoryS":"movies","magnet":"?xt=urn:btih:5843af0c88a8be6ba67da33dcff660599804bb94&amp;dn=The+Amazing+Spiderman+2+2014+480p+DVDScr+TS+AUDIO+x264+Pimp4003&amp;tr=udp%3A%2F%2Ftracker.openbittorrent.com%3A80&amp;tr=udp%3A%2F%2Fopen.demonii.com%3A1337&amp;tr=udp%3A%2F%2Ftracker.coppersurfer.tk%3A6969&amp;tr=udp%3A%2F%2Fexodus.desync.com%3A6969","seeders":6,"leechers":0,"uploader":"shawnmurthy","files":-1,"time":1400580016,"description":"OK SO BEFORE YOU GUYS COMPLAIN  AND SAY &quot;OMG I WASTED MY BANDWITH DOWNLOADING THIS CRAP&quot; I GOT THIS SOURCE FROM SPECTRE....IT WAS A GOOD ONE....VIDEO QUALITY IS AMAZING...BUT AUDIO WAS CRAPPY SO I SPLIT THE AUDIO FROM THIS AND THEN TOOK THE VIDEO AND USED 720P TS AUDIO FROM EVE WHICH IS GOOD....ALL IN ALL ITS GOOD.....ENJOY....PIMP4003 OUT...OH YEA THERE WERE SUBS I CROPPED MOST OF IT OFF...IT DOES APPEAR A LITTLE HERE AND THERE....TAKE IT OR LEAVE IT\n\nSOURCE: SpEcTre\n &lt;a href=&quot;\nhttp://pimp4003.net/torrents.php?id=5843af0c88a8be6ba67da33dcff660599804bb94&quot; rel=&quot;nofollow&quot; target=&quot;_NEW&quot;&gt;\nhttp://pimp4003.net/torrents.php?id=5843af0c88a8be6ba67da33dcff660599804bb94&lt;/a&gt;\n\nThe Amazing Spiderman 2 2014 480p DVDScr TS AUDIO x264 Pimp4003\n &lt;a href=&quot;\nhttp://www.imdb.com/title/tt1872181/&quot; rel=&quot;nofollow&quot; target=&quot;_NEW&quot;&gt;\nhttp://www.imdb.com/title/tt1872181/&lt;/a&gt;\n\nPeter Parker runs the gauntlet as the mysterious company Oscorp sends up a slew of supervillains against him, impacting on his life.\n\nDirector: Marc Webb\nWriters: Alex Kurtzman (screenplay), Roberto Orci (screenplay), 7 more credits Â»\nStars: Andrew Garfield, Emma Stone, Jamie Foxx | See full cast and crew Â»\n\nVideo\nID                                       : 2\nFormat                                   : AVC\nFormat/Info                              : Advanced Video Codec\nFormat profile                           : &lt;a class=&quot;__cf_email__&quot; href=&quot;/cdn-cgi/l/email-protection&quot; data-cfemail=&quot;33715240565f5a5d56737f001d03&quot;&gt;[email&amp;#160;protected]&lt;/a&gt;&lt;script data-cfhash='f9e31' type=&quot;text/javascript&quot;&gt;\n/* &lt;![CDATA[ */!function(){try{var t=&quot;currentScript&quot;in document?document.currentScript:function(){for(var t=document.getElementsByTagName(&quot;script&quot;),e=t.length;e--;)if(t[e].getAttribute(&quot;data-cfhash&quot;))return t[e]}();if(t&amp;&amp;t.previousSibling){var e,r,n,i,c=t.previousSibling,a=c.getAttribute(&quot;data-cfemail&quot;);if(a){for(e=&quot;&quot;,r=parseInt(a.substr(0,2),16),n=2;a.length-n;n+=2)i=parseInt(a.substr(n,2),16)^r,e+=String.fromCharCode(i);e=document.createTextNode(e),c.parentNode.replaceChild(e,c)}t.parentNode.removeChild(t);}}catch(u){}}()/* ]]&gt; */&lt;/script&gt;\nFormat settings, CABAC                   : No\nFormat settings, ReFrames                : 1 frame\nFormat settings, GOP                     : M=1, N=25\nMuxing mode                              : Container profile=&lt;a class=&quot;__cf_email__&quot; href=&quot;/cdn-cgi/l/email-protection&quot; data-cfemail=&quot;3476554751585d5a5174001a05&quot;&gt;[email&amp;#160;protected]&lt;/a&gt;&lt;script data-cfhash='f9e31' type=&quot;text/javascript&quot;&gt;\n/* &lt;![CDATA[ */!function(){try{var t=&quot;currentScript&quot;in document?document.currentScript:function(){for(var t=document.getElementsByTagName(&quot;script&quot;),e=t.length;e--;)if(t[e].getAttribute(&quot;data-cfhash&quot;))return t[e]}();if(t&amp;&amp;t.previousSibling){var e,r,n,i,c=t.previousSibling,a=c.getAttribute(&quot;data-cfemail&quot;);if(a){for(e=&quot;&quot;,r=parseInt(a.substr(0,2),16),n=2;a.length-n;n+=2)i=parseInt(a.substr(n,2),16)^r,e+=String.fromCharCode(i);e=document.createTextNode(e),c.parentNode.replaceChild(e,c)}t.parentNode.removeChild(t);}}catch(u){}}()/* ]]&gt; */&lt;/script&gt;\nCodec ID                                 : avc1\nCodec ID/Info                            : Advanced Video Coding\nDuration                                 : 2h 16mn\nBit rate                                 : 1 551 Kbps\nWidth                                    : 856 pixels\nHeight                                   : 480 pixels\nDisplay aspect ratio                     : 16:9\nFrame rate mode                          : Constant\nFrame rate                               : 29.970 fps\nOriginal frame rate                      : 29.000 fps\nColor space                              : YUV\nChroma subsampling                       : 4:2:0\nBit depth                                : 8 bits\nScan type                                : Progressive\nBits/(Pixel*Frame)                       : 0.126\nStream size                              : 1.48 GiB (92%)\nWriting library                          : ointer\nLanguage                                 : English\n\nAudio\nID                                       : 1\nFormat                                   : AAC\nFormat/Info                              : Advanced Audio Codec\nFormat profile                           : LC\nCodec ID                                 : 40\nDuration                                 : 2h 16mn\nBit rate mode                            : Constant\nBit rate                                 : 128 Kbps\nChannel(s)                               : 2 channels\nChannel positions                        : Front: L R\nSampling rate                            : 48.0 KHz\nCompression mode                         : Lossy\nStream size                              : 125 MiB (8%)\nLanguage                                 : English\n","torrent":{"xt":"urn:btih:5843af0c88a8be6ba67da33dcff660599804bb94","amp;dn":"The+Amazing+Spiderman+2+2014+480p+DVDScr+TS+AUDIO+x264+Pimp4003","amp;tr":["udp%3A%2F%2Ftracker.openbittorrent.com%3A80","udp%3A%2F%2Fopen.demonii.com%3A1337","udp%3A%2F%2Ftracker.coppersurfer.tk%3A6969","udp%3A%2F%2Fexodus.desync.com%3A6969"],"infoHash":"5843af0c88a8be6ba67da33dcff660599804bb94","infoHashBuffer":{"type":"Buffer","data":[88,67,175,12,136,168,190,107,166,125,163,61,207,246,96,89,152,4,187,148]},"announce":[],"urlList":[]}}